# xmcd CD database file
#
# Track frame offsets:
#	150
#	14291
#	25308
#	39765
#	51781
#	65883
#	79782
#	94312
#	108469
#	119024
#	140909
#	163874
#	181036
#	206222
#	230417
#	252797
#	278841
#
# Disc length: 4102 seconds
#
# Revision: 0
# Processed by: cddbd v1.5.1PL0 Copyright (c) Steve Scherf et al.
# Submitted via: CDex 1.50
#
DISCID=f5100411
DTITLE=Jazz and Dintorni # 50 - Count Basie
DYEAR=1900
DGENRE=Jazz
TTITLE0=oh, lady be good
TTITLE1=louisiana
TTITLE2=love jumped out
TTITLE3=tickle toe
TTITLE4=goin' to chicago blues
TTITLE5=one o' clock jump
TTITLE6=lester leaps in
TTITLE7=jumpin' at the woodside
TTITLE8=moten swing
TTITLE9=st. louis blues
TTITLE10=blues for little jazz
TTITLE11=take the 'a' train
TTITLE12=battle royal
TTITLE13=on the sunny side of the street
TTITLE14=i surrender, dear
TTITLE15=sandman
TTITLE16=blues for eric
EXTD=
EXTT0=
EXTT1=
EXTT2=
EXTT3=
EXTT4=
EXTT5=
EXTT6=
EXTT7=
EXTT8=
EXTT9=
EXTT10=
EXTT11=
EXTT12=
EXTT13=
EXTT14=
EXTT15=
EXTT16=
PLAYORDER=
